<?xml version="1.0" standalone="no"?><!DOCTYPE svg PUBLIC "-//W3C//DTD SVG 1.1//EN" "http://www.w3.org/Graphics/SVG/1.1/DTD/svg11.dtd">
<svg t="1713018555980"
     class="icon"
     viewBox="0 0 1024 1024"
     version="1.1"
     xmlns="http://www.w3.org/2000/svg"
     p-id="13279"
     width="200"
     height="200"
     fill="currentColor">
    <path
        d="M512 416a160 160 0 1 0 0 320 160 160 0 0 0 0-320z m0 64a96 96 0 1 1 0 192 96 96 0 0 1 0-192zM640 74.666667H384A117.333333 117.333333 0 0 0 266.666667 192v42.666667a32 32 0 0 0 32 32h426.666666a32 32 0 0 0 32-32V192A117.333333 117.333333 0 0 0 640 74.666667z m0 64l3.498667 0.106666A53.333333 53.333333 0 0 1 693.333333 192v10.666667h-362.666666V192A53.333333 53.333333 0 0 1 384 138.666667h256z"
        fill="#666666"
        p-id="13280"></path>
    <path
        d="M853.333333 202.666667a117.333333 117.333333 0 0 1 117.248 112.618666L970.666667 320v269.738667a32 32 0 0 1-63.850667 3.093333l-0.149333-3.093333V320a53.333333 53.333333 0 0 0-49.834667-53.226667L853.333333 266.666667H170.666667a53.333333 53.333333 0 0 0-53.226667 49.834666L117.333333 320v512a53.333333 53.333333 0 0 0 49.834667 53.226667L170.666667 885.333333h396.949333a32 32 0 0 1 3.072 63.850667l-3.072 0.149333H170.666667a117.333333 117.333333 0 0 1-117.248-112.618666L53.333333 832V320a117.333333 117.333333 0 0 1 112.618667-117.248L170.666667 202.666667h682.666666z"
        fill="#666666"
        p-id="13281"></path>
    <path
        d="M810.666667 341.333333a32 32 0 0 1 3.072 63.850667L810.666667 405.333333h-85.333334a32 32 0 0 1-3.072-63.850666L725.333333 341.333333h85.333334zM938.666667 789.333333a32 32 0 0 1 3.072 63.850667L938.666667 853.333333H704a32 32 0 0 1-3.072-63.850666L704 789.333333h234.666667z"
        fill="#666666"
        p-id="13282"></path>
    <path
        d="M821.333333 672a32 32 0 0 1 31.850667 28.928L853.333333 704v234.666667a32 32 0 0 1-63.850666 3.072L789.333333 938.666667V704a32 32 0 0 1 32-32z"
        fill="#666666"
        p-id="13283"></path>
</svg>