<?xml version="1.0" standalone="no"?><!DOCTYPE svg PUBLIC "-//W3C//DTD SVG 1.1//EN" "http://www.w3.org/Graphics/SVG/1.1/DTD/svg11.dtd">
<svg t="1713080311588"
     class="icon"
     viewBox="0 0 1024 1024"
     version="1.1"
     xmlns="http://www.w3.org/2000/svg"
     p-id="19809"
     width="200"
     height="200"
     fill="currentColor">
    <path
        d="M777.75872 552.4736h-337.92a35.84 35.84 0 1 0 0 71.68h337.92a35.84 35.84 0 1 0 0-71.68z"
        fill="#666666"
        p-id="19810"></path>
    <path
        d="M839.68 138.24h-102.4v-35.84a35.84 35.84 0 1 0-71.68 0v35.84H358.4v-35.84a35.84 35.84 0 1 0-71.68 0v35.84H184.32c-56.55552 0-102.4 45.84448-102.4 102.4v614.4c0 56.55552 45.84448 102.4 102.4 102.4h655.36c56.55552 0 102.4-45.84448 102.4-102.4V240.64c0-56.55552-45.84448-102.4-102.4-102.4zM184.32 209.92h102.4v25.6a35.84 35.84 0 1 0 71.68 0v-25.6h307.2v25.6a35.84 35.84 0 1 0 71.68 0v-25.6h102.4c16.94208 0 30.72 13.78304 30.72 30.72v117.76H153.6V240.64c0-16.93696 13.77792-30.72 30.72-30.72z m655.36 675.84H184.32c-16.94208 0-30.72-13.78304-30.72-30.72V430.08h716.8v424.96c0 16.93696-13.77792 30.72-30.72 30.72z"
        fill="#666666"
        p-id="19811"></path>
</svg>