<?xml version="1.0" standalone="no"?><!DOCTYPE svg PUBLIC "-//W3C//DTD SVG 1.1//EN" "http://www.w3.org/Graphics/SVG/1.1/DTD/svg11.dtd">
<svg t="1706271601176"
     class="icon"
     viewBox="0 0 1024 1024"
     version="1.1"
     xmlns="http://www.w3.org/2000/svg"
     p-id="9664"
     width="200"
     height="200"
     fill="currentColor">
    <path
        d="M1014.656 524.16a31.744 31.744 0 0 1-22.528 9.344H542.016a32 32 0 0 1-31.872-32V32a32 32 0 0 1 41.6-30.464 512.064 512.064 0 0 1 471.168 477.312l0.768 10.112c0.256 3.584 0.32 6.976 0.32 12.544a32 32 0 0 1-9.344 22.592z m-56.384-54.656a448.32 448.32 0 0 0-384.384-401.28v401.28h384.384zM410.24 10.112a32 32 0 0 1 12.544 62.72A448.128 448.128 0 0 0 512 960a448.32 448.32 0 0 0 437.44-349.632 31.872 31.872 0 1 1 62.208 14.08A512 512 0 1 1 410.24 10.112z"
        fill="#666666"
        p-id="9665"></path>
</svg>