<?xml version="1.0" standalone="no"?><!DOCTYPE svg PUBLIC "-//W3C//DTD SVG 1.1//EN" "http://www.w3.org/Graphics/SVG/1.1/DTD/svg11.dtd">
<svg t="1706629006859"
     class="icon"
     viewBox="0 0 1024 1024"
     version="1.1"
     xmlns="http://www.w3.org/2000/svg"
     p-id="30048"
     width="200"
     height="200"
     fill="currentColor">
    <path
        d="M880 224H144a48 48 0 0 1 0-96H384a64 64 0 0 1 64-64h128a64 64 0 0 1 64 64h240a48 48 0 0 1 0 96zM832 832a128 128 0 0 1-128 128H320a128 128 0 0 1-128-128V288h640V832zM448 464a48 48 0 0 0-96 0v288a48 48 0 0 0 96 0v-288z m224 0a48 48 0 0 0-96 0v288a48 48 0 0 0 96 0v-288z"
        p-id="30049"></path>
</svg>