<?xml version="1.0" standalone="no"?><!DOCTYPE svg PUBLIC "-//W3C//DTD SVG 1.1//EN" "http://www.w3.org/Graphics/SVG/1.1/DTD/svg11.dtd">
<svg t="1706366964513"
     class="icon"
     viewBox="0 0 1024 1024"
     version="1.1"
     xmlns="http://www.w3.org/2000/svg"
     p-id="22094"
     width="200"
     height="200"
     fill="currentColor">
    <path
        d="M512 0a511.808 511.808 0 0 1 405.76 199.616l3.008 4.096v-51.328a32 32 0 0 1 26.24-31.488l5.76-0.512a32 32 0 0 1 31.488 26.24l0.512 5.76v169.216c0 34.688-47.616 44.544-61.44 12.672A448 448 0 1 0 512 960a448.128 448.128 0 0 0 441.6-371.712 32 32 0 0 1 63.104 10.752A512.128 512.128 0 0 1 0 512a512 512 0 0 1 512-512z m128 480a32 32 0 1 1 0 64l-96-0.064v64H640a32 32 0 1 1 0 64H544v33.28a32 32 0 0 1-63.488 5.76l-0.512-5.76v-33.28H384a32 32 0 1 1 0-64h96v-64H384a32 32 0 0 1 0-64h256z m336-73.6a48 48 0 1 1 0 96 48 48 0 0 1 0-96z m-334.464-86.912a32 32 0 0 1 3.072 41.664l-3.072 3.648-50.176 50.112a112.128 112.128 0 0 1-152.64 5.44l-5.888-5.44-49.92-49.92a32 32 0 0 1 45.312-45.248l49.92 49.92a48.128 48.128 0 0 0 63.808 3.712l4.16-3.712 50.176-50.176a32 32 0 0 1 45.248 0z"
        p-id="22095"></path>
</svg>