<?xml version="1.0" standalone="no"?><!DOCTYPE svg PUBLIC "-//W3C//DTD SVG 1.1//EN" "http://www.w3.org/Graphics/SVG/1.1/DTD/svg11.dtd">
<svg t="1706271523025"
     class="icon"
     viewBox="0 0 1024 1024"
     version="1.1"
     xmlns="http://www.w3.org/2000/svg"
     p-id="6885"
     width="200"
     height="200"
     fill="currentColor">
    <path
        d="M907.311395 0H189.681476C125.387755 0 73.092862 52.194903 73.092862 116.588614v45.295577c0 4.19959 0.699932 8.29919 2.399766 12.198809 6.199395 13.798652 21.09794 20.797969 35.396543 16.798359 12.89874-3.699639 21.597891-15.798457 21.597891-29.097158v-31.396934c0-39.196172 31.796895-70.893077 70.893077-70.893077h690.232594c39.196172 0 70.893077 31.796895 70.893077 70.893077v763.325456c0 39.196172-31.796895 70.893077-70.893077 70.893077H203.380139c-39.196172 0-70.893077-31.796895-70.893077-70.893077v-31.296943c0-16.198418-12.69876-29.89708-28.897178-30.397032-16.79836-0.499951-30.497022 12.998731-30.497022 29.6971v45.695538c0 64.493702 52.194903 116.588614 116.588614 116.588614h717.629919c64.493702 0 116.588614-52.194903 116.588615-116.588614V116.588614C1023.90001 52.194903 971.705107 0 907.311395 0"
        p-id="6886"></path>
    <path
        d="M29.6971 291.371546H175.982814c16.498389 0 29.6971 13.298701 29.6971 29.6971s-13.298701 29.6971-29.6971 29.6971H29.6971C13.298701 350.865736 0 337.567034 0 321.068646s13.298701-29.6971 29.6971-29.6971M29.6971 482.052925H175.982814c16.498389 0 29.6971 13.298701 29.6971 29.697099s-13.298701 29.6971-29.6971 29.6971H29.6971C13.298701 541.447124 0 528.148423 0 511.750024s13.298701-29.6971 29.6971-29.697099M29.6971 673.034274H175.982814c16.498389 0 29.6971 13.298701 29.6971 29.6971s-13.298701 29.6971-29.6971 29.6971H29.6971C13.298701 732.528464 0 719.229763 0 702.831364s13.298701-29.79709 29.6971-29.79709M720.029685 552.946001l-133.386974 1.399864-0.899912-80.092179h134.486866c14.298604 0 25.897471-11.598867 25.897471-25.897471s-11.598867-25.897471-25.897471-25.897471h-127.987501l104.089835-104.089835c10.199004-10.199004 10.199004-26.497412 0-36.696416-10.099014-10.099014-26.397422-10.199004-36.596426-0.09999l-0.099991 0.09999-100.990137 101.090128-100.990138-100.990138c-10.099014-10.099014-26.397422-10.199004-36.596426-0.09999l-0.09999 0.09999c-10.099014 10.099014-10.199004 26.397422-0.099991 36.596426l0.099991 0.099991 104.089835 104.089834H401.660775c-14.298604 0-25.897471 11.598867-25.897471 25.897471s11.598867 25.897471 25.897471 25.897471H533.947857l0.899912 80.49214-133.386974 1.399863c-14.298604 0.09999-25.897471 11.798848-25.797481 25.997461 0.09999 14.298604 11.798848 25.897471 25.997461 25.797481h0.199981l133.386974-1.399863 1.399863 153.385021c0.09999 14.198613 11.698858 25.69749 25.897471 25.69749h0.19998c14.298604-0.09999 25.797481-11.898838 25.697491-26.097451l-1.399863-153.385021 133.386974-1.399863c14.298604-0.09999 25.797481-11.898838 25.69749-26.097452-0.09999-14.398594-11.898838-25.897471-26.097451-25.797481z"
        p-id="6887"></path>
</svg>