<?xml version="1.0" standalone="no"?><!DOCTYPE svg PUBLIC "-//W3C//DTD SVG 1.1//EN" "http://www.w3.org/Graphics/SVG/1.1/DTD/svg11.dtd">
<svg t="1707318390851"
     class="icon"
     viewBox="0 0 1024 1024"
     version="1.1"
     xmlns="http://www.w3.org/2000/svg"
     p-id="44332"
     width="200"
     height="200"
     fill="currentColor">
    <path
        d="M614.46116693 910.64456533c-1.62747733 3.43517867-5.12273067 6.30784-10.387456 8.03362134l-70.02740053 22.8458496c-12.57198933 4.09053867-19.34513493-2.52859733-15.187968-14.8504576l23.35921493-68.4654592c1.753088-5.18280533 4.74043733-8.585216 8.26299734-10.19630934l220.8366592-215.89415253 64.0253952 62.59452587L614.46116693 910.64456533z m-163.75261866-28.2198016l320.602112-313.442304V291.864576H611.3099776c-35.3468416-0.01092267-64.00354987-28.0231936-64.0090112-62.57814187V68.91984213H223.29535147c-50.8526592 0-92.05951147 40.28388693-92.05951147 89.97328214v653.11648426c0 18.67885227 7.602176 36.5920256 21.10368427 49.79316054 13.51133867 13.21096533 31.82974293 20.62854827 50.92911786 20.62308693h247.43990614z m165.37463466-801.72373333l143.20162134 140.00018773c20.3227136 19.85850027 13.46218667 35.95851093-15.220736 35.95851094h-112.787456c-28.70586027-0.01092267-51.98861653-22.7475456-52.01046187-50.8035072V95.6104704c0-28.08326827 16.48339627-34.71878827 36.77771093-14.87121067l0.0393216-0.03822933z m-356.82932053 332.40951467c0.01092267-17.28075093 14.336-31.2836096 32.00996693-31.2999936h320.045056c17.67396693 0.02184533 31.98266027 14.01924267 31.9881216 31.2999936-0.016384 17.26436693-14.32507733 31.26176427-31.9881216 31.27814826H291.27038293c-17.6685056-0.01092267-31.9881216-14.00832-32.01652053-31.27814826z m0 125.13989973c0.02730667-17.26982827 14.34692267-31.25630293 32.00996693-31.27268693h320.045056c17.66304427 0.016384 31.9717376 14.01378133 31.9881216 31.27268693-0.00546133 17.28075093-14.32507733 31.27814827-31.9881216 31.29453227H291.27038293c-17.6685056-0.01092267-32.0045056-14.00285867-32.01652053-31.29453227z m526.72047787 80.8091648l37.0180096-36.17150293c9.355264-9.158656 24.52794027-9.17504 33.91051093-0.049152l31.94989227 31.2180736c9.33888 9.17504 9.322496 24.01457493-0.049152 33.17323093l-37.0180096 36.20973227-65.7948672-64.3694592-0.016384-0.01092267z m0 0"
        fill="#006569"
        p-id="44333"></path>
</svg>