<?xml version="1.0" standalone="no"?><!DOCTYPE svg PUBLIC "-//W3C//DTD SVG 1.1//EN" "http://www.w3.org/Graphics/SVG/1.1/DTD/svg11.dtd">
<svg t="1706280629777"
     class="icon"
     viewBox="0 0 1024 1024"
     version="1.1"
     xmlns="http://www.w3.org/2000/svg"
     p-id="16619"
     width="200"
     height="200"
     fill="currentColor">
    <path
        d="M945.7 875L695 624.3c102.6-137.2 92-332.8-32.6-457.4-136.7-136.6-359-136.6-495.6 0-136.6 136.7-136.6 359 0 495.6C235.1 730.9 324.9 765 414.6 765c73.9 0 147.6-23.6 209.6-69.9l250.7 250.7c19.6 19.6 51.3 19.6 70.8 0s19.5-51.3 0-70.8zM237.6 591.8c-97.6-97.6-97.6-256.4 0-354 48.8-48.8 112.9-73.2 177-73.2s128.2 24.4 177 73.2c97.6 97.6 97.6 256.4 0 354-97.6 97.5-256.4 97.6-354 0z"
        fill="#646464"
        p-id="16620"></path>
</svg>