<?xml version="1.0" standalone="no"?><!DOCTYPE svg PUBLIC "-//W3C//DTD SVG 1.1//EN" "http://www.w3.org/Graphics/SVG/1.1/DTD/svg11.dtd">
<svg t="1706884811219"
     class="icon"
     viewBox="0 0 1024 1024"
     version="1.1"
     xmlns="http://www.w3.org/2000/svg"
     p-id="31258"
     width="200"
     height="200"
     fill="currentColor">
    <path
        d="M536.4 502.6V245c0-13.8-11.2-25-25-25s-25 11.2-25 25V516c0.2 1.5 0.5 2.9 0.9 4.3v0.1c0.1 0.3 0.2 0.5 0.3 0.8 0 0.1 0.1 0.2 0.1 0.4 0.1 0.2 0.2 0.4 0.2 0.6 0.1 0.2 0.1 0.4 0.2 0.5 0.1 0.1 0.1 0.3 0.2 0.4 0.1 0.2 0.2 0.5 0.3 0.7 0 0.1 0.1 0.1 0.1 0.2 0.8 1.7 1.8 3.3 3 4.7l0.1 0.1c0.1 0.2 0.3 0.3 0.4 0.5 0.1 0.1 0.2 0.3 0.4 0.4l0.4 0.4 0.5 0.5 0.1 0.1 158.6 155.6c4.9 4.8 11.2 7.2 17.5 7.2 6.5 0 13-2.5 17.8-7.5 9.7-9.9 9.5-25.7-0.3-35.4l-150.8-148z"
        fill="#424242"
        p-id="31259"></path>
    <path
        d="M926.4 337.3c-22.6-53.5-55-101.6-96.3-142.8-41.3-41.3-89.3-73.7-142.8-96.3-55.5-23.5-114.3-35.4-175-35.4S392.8 74.7 337.4 98.1c-53.5 22.6-101.6 55-142.8 96.3-41.3 41.3-73.7 89.3-96.3 142.8C74.9 392.6 63 451.5 63 512.1S74.9 631.6 98.3 687c22.6 53.5 55 101.6 96.3 142.8 41.3 41.3 89.3 73.7 142.8 96.3 55.4 23.4 114.3 35.3 174.9 35.3s119.5-11.9 174.9-35.3c53.5-22.6 101.6-55 142.8-96.3s73.7-89.3 96.3-142.8c23.4-55.4 35.3-114.3 35.3-174.9s-11.7-119.4-35.2-174.8zM512.3 911.6c-220.2 0-399.4-179.2-399.4-399.4s179.2-399.4 399.4-399.4S911.7 292 911.7 512.2 732.6 911.6 512.3 911.6z"
        fill="#424242"
        p-id="31260"></path>
</svg>